<svg id="typescript" xmlns="http://www.w3.org/2000/svg" width="254.5" height="254.5" viewBox="0 0 254.5 254.5">
  <path id="パス_914" data-name="パス 914" d="M0,127.25V0H254.5V254.5H0" fill="#007acc"/>
  <path id="パス_915" data-name="パス 915" d="M87.7,193.907v10.371h33.085v94.165h23.478V204.278h33.085V194.1c0-5.726,0-10.371-.254-10.5,0-.191-20.169-.255-44.665-.255l-44.538.191v10.435Zm148.692-10.625a30.806,30.806,0,0,1,15.906,9.1c2.354,2.545,5.853,7,6.108,8.144,0,.382-11.007,7.826-17.688,11.961-.254.191-1.272-.891-2.29-2.545-3.309-4.708-6.681-6.744-11.961-7.126-7.635-.509-12.725,3.5-12.725,10.18a10.054,10.054,0,0,0,1.145,4.836c1.718,3.5,4.9,5.6,14.761,9.925,18.2,7.826,26.086,12.979,30.858,20.36,5.408,8.271,6.617,21.251,2.99,30.985-4.072,10.625-14,17.815-28.186,20.169-4.454.763-14.634.636-19.406-.191-10.18-1.909-19.915-7-25.9-13.552-2.354-2.545-6.872-9.353-6.617-9.8l2.418-1.527,9.544-5.535,7.19-4.2,1.654,2.227a34.623,34.623,0,0,0,9.544,9.289c8.271,4.263,19.342,3.69,24.814-1.272a9.535,9.535,0,0,0,3.372-7.635,9.818,9.818,0,0,0-1.909-6.49c-2.036-2.8-6.108-5.09-17.56-10.18-13.17-5.6-18.769-9.162-23.987-14.634a36.143,36.143,0,0,1-7-12.725c-.954-3.69-1.273-12.725-.382-16.352,2.736-12.725,12.343-21.633,26.086-24.177,4.454-.891,14.952-.509,19.342.636Z" transform="translate(-31.901 -66.212)" fill="#fff"/>
</svg>
